<svg width="40" height="62" viewBox="0 0 40 62" fill="none" xmlns="http://www.w3.org/2000/svg">
<path d="M0.0259558 24.3861C0.0459784 18.7456 0.0526523 18.6462 0.191328 18.0589C0.752704 15.7541 1.78943 13.9639 3.36158 12.5838C4.029 12.0024 4.68234 11.5538 5.46174 11.1704C6.30046 10.7477 6.99384 10.523 8.10399 10.305C8.59269 10.2056 8.97609 10.107 8.94939 10.0803C8.92269 10.0536 6.90189 10.0343 4.4517 10.0343H0.00667395V9.65756C0.00667395 9.14216 0.165373 8.15808 0.363375 7.39203C1.25475 3.97112 4.00231 1.21022 7.37131 0.358145C8.87078 -0.0252522 8.52075 -0.0119038 20.2177 0.00811882C30.8646 0.0348157 30.9573 0.0348154 31.5846 0.173491C33.3481 0.56282 34.3322 0.99887 35.6396 1.98295C38.1558 3.86508 39.6352 6.85735 39.6352 10.0602C39.6352 12.8805 38.6178 15.3774 36.7223 17.2395C35.3222 18.6069 33.6574 19.4917 31.7092 19.9077C31.2532 20.0004 30.8112 20.099 30.7185 20.1257C30.6258 20.1524 32.5873 20.185 35.0775 20.2051L39.6019 20.2384L39.6219 25.1788L39.6352 30.1126H31.9339C24.6227 30.1126 24.2326 30.1059 24.2793 30.0006C24.9727 28.1911 25.3821 26.7577 25.6661 25.1662C25.7914 24.4528 25.9501 23.6934 26.0161 23.4754C26.1882 22.9274 26.7228 21.4672 26.9868 20.8332C27.2976 20.0805 27.4029 19.677 27.4555 19.0964C27.4822 18.799 27.5875 18.317 27.7195 17.9277C27.8382 17.5643 27.9835 16.9703 28.0369 16.6069C28.0962 16.2435 28.1956 15.7682 28.275 15.5568C28.4863 14.9428 28.4337 14.084 28.1363 13.1526C28.0703 12.9479 28.0436 12.9346 27.8523 12.9613C27.7403 12.9813 27.5816 13.0139 27.5089 13.0406C27.3836 13.08 27.3636 13.054 27.3176 12.836C27.1522 11.9572 26.6242 10.7358 26.0295 9.87707C24.6494 7.88222 22.7539 6.79951 20.435 6.68679C17.0267 6.52142 14.2064 8.48364 13.0244 11.8319C12.701 12.7566 12.6017 13.4433 12.641 14.3814L12.6803 15.1875H12.5283C12.2309 15.1875 12.1916 15.3329 12.1916 16.337C12.1983 17.367 12.1456 17.1623 12.9183 19.3159C13.3017 20.386 13.4404 20.9933 13.5791 22.1228C13.8364 24.2563 14.3911 26.9245 14.7152 27.5719C14.7745 27.6839 15.0192 28.1007 15.2699 28.4967C15.7853 29.3287 15.8313 29.4674 15.7259 29.8441L15.6533 30.1148H7.82664H0L0.0266969 24.3883L0.0259558 24.3861Z" fill="white"/>
<path d="M8.6746 61.8934C7.2745 61.6753 5.92038 61.2067 4.81097 60.5459C2.26809 59.0272 0.517964 56.4183 0.0885893 53.492C-0.00410825 52.878 -0.0107819 51.9666 0.00924078 46.6428C0.0292634 40.547 0.0292628 40.4936 0.181287 39.8403C1.11271 35.7126 3.93961 32.839 7.96788 31.9343C8.57523 31.8023 8.8066 31.7889 12.1815 31.7689L15.7611 31.7422L15.8271 32.1582C16.0051 33.215 16.0452 33.7237 16.0051 34.4564C15.9658 35.0904 15.9784 35.2818 16.0711 35.5858L16.1898 35.9492L15.9717 36.7746C15.6544 38.016 15.265 39.2841 15.001 39.9248C14.8757 40.2422 14.697 40.7368 14.6117 41.0275C14.4997 41.3909 14.2817 41.8336 13.925 42.4276C13.2843 43.471 12.9869 44.0984 12.5516 45.3205C12.0896 46.5886 12.0955 46.5619 12.3135 46.734L12.4915 46.8727L19.8554 46.8593L27.2193 46.8393L27.3513 46.6613L27.4833 46.4833L27.2786 45.9286C26.8226 44.6805 26.3739 43.6764 25.8125 42.679C25.4425 42.0183 25.1392 41.3842 25.0131 40.9949C24.7424 40.1829 24.6697 40.0442 24.2797 39.6081C23.6063 38.8554 23.4409 38.3601 23.4476 37.1772C23.4476 36.5565 23.4142 36.2658 23.2756 35.7111C23.1829 35.3277 23.1035 34.8858 23.1035 34.7204C23.1035 34.4097 23.4269 32.6996 23.6056 32.0915L23.7049 31.7415L27.3839 31.7682C30.8315 31.7882 31.1022 31.8015 31.6769 31.9335C33.6785 32.3829 35.2565 33.235 36.65 34.6218C38.3867 36.3393 39.4502 38.6834 39.5955 41.1143L39.6348 41.7876L35.0845 41.7943L30.5342 41.801L31.3269 41.9597C35.1312 42.7391 37.9448 45.1633 39.1268 48.6895C39.7943 50.6844 39.7876 53.2399 39.1202 55.2414C37.9247 58.821 34.8205 61.3505 30.9435 61.8993C29.9661 62.038 9.57711 62.0313 8.67238 61.8926L8.6746 61.8934ZM29.7236 56.5369C29.7896 56.4776 29.8423 56.3982 29.8423 56.3523C29.8423 56.313 29.6176 55.6522 29.3402 54.8928C29.0695 54.1335 28.5608 52.7267 28.2108 51.7619C27.8674 50.7978 27.55 49.9717 27.5174 49.9257C27.4648 49.8664 25.7873 49.8464 19.3808 49.8597L11.3161 49.8798L11.2961 53.1427C11.2827 56.1083 11.2894 56.4183 11.3888 56.531C11.4941 56.643 11.8508 56.6496 20.5495 56.6496C28.8782 56.6496 29.6109 56.643 29.7236 56.5377V56.5369Z" fill="white"/>
<rect x="6.93921" y="47.4246" width="26.1412" height="9.94753" fill="white"/>
<path d="M11 52.1053V49.083H13.3104H15.6277L15.4731 49.4729C15.3856 49.681 15.265 49.9969 15.2046 50.1779L15.084 50.4938H13.9823H12.8806V51.0315V51.5691H13.7538C14.4121 51.5691 14.627 51.5895 14.6202 51.6566C14.6202 51.6966 14.5328 52.0125 14.4325 52.3413L14.2447 52.946L13.56 52.9664L12.8814 52.9868V54.0545V55.129H11.9411H11.0008V52.1068L11 52.1053Z" fill="#2F2F2F"/>
<path d="M16.0364 52.0622V49L16.191 49.04C16.2716 49.0603 16.6947 49.0799 17.1313 49.0799H17.917V52.1022V55.1245H16.9767H16.0364V52.0622Z" fill="#2F2F2F"/>
<path d="M19.124 52.1053V49.083H21.4141C23.2208 49.083 23.6974 49.1034 23.6703 49.1705C23.6567 49.2104 23.536 49.5332 23.4154 49.8687L23.1869 50.4931H22.0988H21.0039V51.0307V51.5684H21.8771C22.5354 51.5684 22.7503 51.5887 22.7435 51.6559C22.7435 51.6958 22.6425 52.0118 22.5286 52.3405L22.3137 52.9453L21.6622 52.9657L21.0039 52.986V54.0538V55.1283H20.0636H19.1233V52.106L19.124 52.1053Z" fill="#2F2F2F"/>
<path d="M22.7661 55.0672C22.7729 55.0333 23.2427 53.6707 23.7939 52.0449L24.8013 49.083H25.8223H26.8365L26.9376 49.3718C27.2603 50.2986 28.8182 54.6638 28.8989 54.8787L28.9999 55.1336L28.0128 55.1132L27.0258 55.0929L26.9187 54.7234L26.8116 54.3539L25.7974 54.3335L24.7832 54.3132L24.6558 54.703L24.5216 55.0929L23.6348 55.1132C23.0911 55.12 22.748 55.1064 22.7684 55.0665L22.7661 55.0672ZM26.406 52.8978C26.0568 51.7893 25.8419 51.0647 25.8419 50.9908C25.8419 50.9372 25.8148 50.8965 25.7884 50.8965C25.7348 50.8965 25.1708 52.8103 25.1708 52.9785C25.1708 53.0184 25.4196 53.0456 25.8155 53.0456C26.4467 53.0456 26.4535 53.0456 26.4067 52.8978H26.406Z" fill="#2F2F2F"/>
</svg>
