<svg width="460" height="581" viewBox="0 0 460 581" fill="none" xmlns="http://www.w3.org/2000/svg">
<mask id="path-1-outside-1_132_16" maskUnits="userSpaceOnUse" x="186.701" y="-4" width="344" height="344" fill="black">
<rect fill="white" x="186.701" y="-4" width="344" height="344"/>
<path d="M188.701 338V224.787C188.701 162.068 239.42 111.575 301.914 111.575H188.701C188.701 48.8549 239.42 -1.6379 301.914 -1.6379H415.126C477.846 -1.6379 528.339 49.0814 528.339 111.575C528.339 174.068 477.62 224.787 415.126 224.787H528.339V338H188.701Z"/>
</mask>
<path d="M188.701 338H187.043V339.658H188.701V338ZM188.701 111.575H187.043V113.233H188.701V111.575ZM528.339 224.787H529.997V223.13H528.339V224.787ZM528.339 338V339.658H529.997V338H528.339ZM188.701 338H190.359V224.787H188.701H187.043V338H188.701ZM188.701 224.787H190.359C190.359 162.985 240.334 113.233 301.914 113.233V111.575V109.917C238.507 109.917 187.043 161.15 187.043 224.787H188.701ZM301.914 111.575V109.917H188.701V111.575V113.233H301.914V111.575ZM188.701 111.575H190.359C190.359 49.7727 240.334 0.0198669 301.914 0.0198669V-1.63791V-3.29568C238.507 -3.29568 187.043 47.9372 187.043 111.575H188.701ZM301.914 -1.63791V0.0198669H415.126V-1.63791V-3.29568H301.914V-1.63791ZM415.126 -1.63791V0.0198669C476.928 0.0198669 526.681 49.9948 526.681 111.575H528.339H529.997C529.997 48.168 478.764 -3.29568 415.126 -3.29568V-1.63791ZM528.339 111.575H526.681C526.681 173.153 476.704 223.13 415.126 223.13V224.787V226.445C478.535 226.445 529.997 174.984 529.997 111.575H528.339ZM415.126 224.787V226.445H528.339V224.787V223.13H415.126V224.787ZM528.339 224.787H526.681V338H528.339H529.997V224.787H528.339ZM528.339 338V336.342H188.701V338V339.658H528.339V338Z" fill="#727272" mask="url(#path-1-outside-1_132_16)"/>
<mask id="path-3-outside-2_132_16" maskUnits="userSpaceOnUse" x="-0.299072" y="305" width="353" height="353" fill="black">
<rect fill="white" x="-0.299072" y="305" width="353" height="353"/>
<path d="M117.862 656C53.741 656 1.70093 603.96 1.70093 539.839V423.678C1.70093 359.325 53.741 307.517 117.862 307.517H234.023C298.376 307.517 350.184 359.557 350.184 423.678H234.023C298.376 423.678 350.184 475.718 350.184 539.839C350.184 603.96 298.144 656 234.023 656H117.862Z"/>
</mask>
<path d="M350.184 423.678V425.379H351.885V423.678H350.184ZM117.862 656V654.299C54.6804 654.299 3.40188 603.021 3.40188 539.839H1.70093H-2.28882e-05C-2.28882e-05 604.899 52.8016 657.701 117.862 657.701V656ZM1.70093 539.839H3.40188V423.678H1.70093H-2.28882e-05V539.839H1.70093ZM1.70093 423.678H3.40188C3.40188 360.267 54.6782 309.218 117.862 309.218V307.517V305.816C52.8038 305.816 -2.28882e-05 358.383 -2.28882e-05 423.678H1.70093ZM117.862 307.517V309.218H234.023V307.517V305.816H117.862V307.517ZM234.023 307.517V309.218C297.434 309.218 348.483 360.495 348.483 423.678H350.184H351.885C351.885 358.62 299.317 305.816 234.023 305.816V307.517ZM350.184 423.678V421.977H234.023V423.678V425.379H350.184V423.678ZM234.023 423.678V425.379C297.434 425.379 348.483 476.656 348.483 539.839H350.184H351.885C351.885 474.781 299.317 421.977 234.023 421.977V423.678ZM350.184 539.839H348.483C348.483 603.021 297.204 654.299 234.023 654.299V656V657.701C299.083 657.701 351.885 604.899 351.885 539.839H350.184ZM234.023 656V654.299H117.862V656V657.701H234.023V656Z" fill="#727272" mask="url(#path-3-outside-2_132_16)"/>
</svg>
