<svg width="1440" height="31" viewBox="0 0 1440 31" fill="none" xmlns="http://www.w3.org/2000/svg">
<mask id="path-1-outside-1_132_28" maskUnits="userSpaceOnUse" x="699.693" y="1" width="51" height="30" fill="black">
<rect fill="white" x="699.693" y="1" width="51" height="30"/>
<path d="M704.339 13.3319C703.579 13.3319 702.901 13.1867 702.307 12.8963C701.712 12.592 701.249 12.1703 700.917 11.6309C700.585 11.0778 700.419 10.4555 700.419 9.76405C700.419 8.67157 700.827 7.80726 701.643 7.17113C702.472 6.53501 703.517 6.21694 704.775 6.21694C705.397 6.21694 705.957 6.27917 706.455 6.40363C706.953 6.51426 707.347 6.63872 707.638 6.77701V6.23769C707.638 5.58773 707.396 5.06223 706.912 4.6612C706.428 4.24633 705.805 4.0389 705.045 4.0389C704.505 4.0389 703.994 4.15644 703.51 4.39153C703.039 4.62662 702.659 4.9516 702.369 5.36647L700.772 4.14261C701.242 3.49266 701.85 2.9879 702.597 2.62835C703.344 2.2688 704.173 2.08903 705.086 2.08903C706.621 2.08903 707.803 2.46932 708.633 3.22991C709.463 3.97667 709.878 5.03458 709.878 6.40363V13H707.638V11.7347H707.534C707.23 12.191 706.801 12.5713 706.248 12.8755C705.695 13.1798 705.058 13.3319 704.339 13.3319ZM704.733 11.4443C705.287 11.4443 705.784 11.3129 706.227 11.0501C706.67 10.7874 707.015 10.4347 707.264 9.99222C707.513 9.5497 707.638 9.0726 707.638 8.56094C707.319 8.38116 706.946 8.23596 706.517 8.12533C706.103 8.0147 705.667 7.95938 705.211 7.95938C704.353 7.95938 703.724 8.13224 703.323 8.47796C702.922 8.80985 702.721 9.24546 702.721 9.78479C702.721 10.2688 702.908 10.6698 703.281 10.9879C703.655 11.2921 704.139 11.4443 704.733 11.4443ZM711.327 2.42092H713.505V3.81072H713.609C713.913 3.31288 714.363 2.90493 714.957 2.58687C715.566 2.25497 716.209 2.08903 716.886 2.08903C718.173 2.08903 719.147 2.46932 719.811 3.22991C720.489 3.97667 720.828 5 720.828 6.29992V13H718.546V6.61107C718.546 5.78133 718.338 5.17286 717.924 4.78566C717.523 4.39845 716.963 4.20484 716.243 4.20484C715.732 4.20484 715.275 4.35005 714.874 4.64045C714.473 4.91703 714.162 5.29041 713.941 5.76059C713.72 6.23077 713.609 6.73553 713.609 7.27485V13H711.327V2.42092ZM726.222 13.3319C724.936 13.3319 723.954 12.9516 723.276 12.191C722.612 11.4166 722.28 10.3449 722.28 8.9758V2.42092H724.562V8.66465C724.562 9.52204 724.763 10.1651 725.164 10.5938C725.579 11.0225 726.118 11.2368 726.782 11.2368C727.321 11.2368 727.798 11.0985 728.213 10.822C728.628 10.5315 728.946 10.1513 729.167 9.68107C729.388 9.21089 729.499 8.70614 729.499 8.16681V2.42092H731.781V13H729.623V11.6309H729.499C729.209 12.1288 728.759 12.5367 728.151 12.8548C727.542 13.1729 726.899 13.3319 726.222 13.3319ZM712.494 15.4209H714.672V16.9767H714.776C715.011 16.4373 715.419 15.9948 716 15.6491C716.581 15.2895 717.196 15.1098 717.846 15.1098C718.358 15.1098 718.786 15.1789 719.132 15.3172V17.6819C718.523 17.4607 717.977 17.35 717.493 17.35C716.968 17.35 716.498 17.4883 716.083 17.7649C715.682 18.0415 715.364 18.4149 715.128 18.8851C714.893 19.3414 714.776 19.8462 714.776 20.3993V26H712.494V15.4209ZM722.798 26.3319C722.037 26.3319 721.359 26.1867 720.765 25.8963C720.17 25.592 719.707 25.1703 719.375 24.6309C719.043 24.0778 718.877 23.4555 718.877 22.764C718.877 21.6716 719.285 20.8073 720.101 20.1711C720.931 19.535 721.975 19.2169 723.233 19.2169C723.856 19.2169 724.416 19.2792 724.913 19.4036C725.411 19.5143 725.805 19.6387 726.096 19.777V19.2377C726.096 18.5877 725.854 18.0622 725.37 17.6612C724.886 17.2463 724.264 17.0389 723.503 17.0389C722.964 17.0389 722.452 17.1564 721.968 17.3915C721.498 17.6266 721.117 17.9516 720.827 18.3665L719.23 17.1426C719.7 16.4927 720.308 15.9879 721.055 15.6284C721.802 15.2688 722.632 15.089 723.544 15.089C725.079 15.089 726.262 15.4693 727.092 16.2299C727.921 16.9767 728.336 18.0346 728.336 19.4036V26H726.096V24.7347H725.992C725.688 25.191 725.259 25.5713 724.706 25.8755C724.153 26.1798 723.517 26.3319 722.798 26.3319ZM723.192 24.4443C723.745 24.4443 724.243 24.3129 724.685 24.0501C725.128 23.7874 725.474 23.4347 725.722 22.9922C725.971 22.5497 726.096 22.0726 726.096 21.5609C725.778 21.3812 725.404 21.236 724.976 21.1253C724.561 21.0147 724.125 20.9594 723.669 20.9594C722.811 20.9594 722.182 21.1322 721.781 21.478C721.38 21.8099 721.18 22.2455 721.18 22.7848C721.18 23.2688 721.366 23.6698 721.74 23.9879C722.113 24.2921 722.597 24.4443 723.192 24.4443ZM733.003 26.3319C732.243 26.3319 731.565 26.1867 730.97 25.8963C730.376 25.592 729.912 25.1703 729.581 24.6309C729.249 24.0778 729.083 23.4555 729.083 22.764C729.083 21.6716 729.491 20.8073 730.307 20.1711C731.136 19.535 732.18 19.2169 733.439 19.2169C734.061 19.2169 734.621 19.2792 735.119 19.4036C735.617 19.5143 736.011 19.6387 736.301 19.777V19.2377C736.301 18.5877 736.059 18.0622 735.575 17.6612C735.091 17.2463 734.469 17.0389 733.708 17.0389C733.169 17.0389 732.657 17.1564 732.173 17.3915C731.703 17.6266 731.323 17.9516 731.033 18.3665L729.435 17.1426C729.906 16.4927 730.514 15.9879 731.261 15.6284C732.008 15.2688 732.837 15.089 733.75 15.089C735.285 15.089 736.467 15.4693 737.297 16.2299C738.127 16.9767 738.542 18.0346 738.542 19.4036V26H736.301V24.7347H736.198C735.893 25.191 735.465 25.5713 734.912 25.8755C734.358 26.1798 733.722 26.3319 733.003 26.3319ZM733.397 24.4443C733.95 24.4443 734.448 24.3129 734.891 24.0501C735.333 23.7874 735.679 23.4347 735.928 22.9922C736.177 22.5497 736.301 22.0726 736.301 21.5609C735.983 21.3812 735.61 21.236 735.181 21.1253C734.766 21.0147 734.331 20.9594 733.874 20.9594C733.017 20.9594 732.388 21.1322 731.987 21.478C731.586 21.8099 731.385 22.2455 731.385 22.7848C731.385 23.2688 731.572 23.6698 731.945 23.9879C732.319 24.2921 732.803 24.4443 733.397 24.4443ZM744.661 30.8124C743.361 30.8124 742.282 30.5151 741.425 29.9205C740.581 29.3258 740.014 28.6206 739.724 27.8047L741.86 26.9127C742.082 27.4659 742.434 27.9084 742.918 28.2403C743.416 28.586 743.997 28.7589 744.661 28.7589C745.629 28.7589 746.382 28.4685 746.922 27.8876C747.475 27.3207 747.752 26.5186 747.752 25.4814V24.5065H747.627C747.281 25.0043 746.818 25.3984 746.237 25.6889C745.67 25.9654 745.013 26.1037 744.267 26.1037C743.382 26.1037 742.559 25.8755 741.798 25.4192C741.038 24.9628 740.429 24.3198 739.973 23.4901C739.53 22.6465 739.309 21.6854 739.309 20.6067C739.309 19.5281 739.53 18.5739 739.973 17.7442C740.429 16.9006 741.038 16.2507 741.798 15.7943C742.559 15.3241 743.382 15.089 744.267 15.089C745 15.089 745.656 15.2342 746.237 15.5246C746.818 15.815 747.281 16.2092 747.627 16.707H747.752V15.4209H749.93V25.4192C749.93 26.567 749.708 27.5419 749.266 28.344C748.823 29.1599 748.201 29.7753 747.399 30.1901C746.611 30.605 745.698 30.8124 744.661 30.8124ZM744.682 24.0294C745.235 24.0294 745.746 23.898 746.217 23.6353C746.687 23.3587 747.06 22.9646 747.337 22.4529C747.613 21.9274 747.752 21.312 747.752 20.6067C747.752 19.5281 747.454 18.6914 746.86 18.0968C746.279 17.4883 745.553 17.1841 744.682 17.1841C744.115 17.1841 743.596 17.3224 743.126 17.599C742.656 17.8617 742.282 18.2489 742.006 18.7606C741.729 19.2723 741.591 19.8876 741.591 20.6067C741.591 21.3258 741.729 21.9412 742.006 22.4529C742.282 22.9646 742.656 23.3587 743.126 23.6353C743.596 23.898 744.115 24.0294 744.682 24.0294Z"/>
</mask>
<path d="M704.339 13.3319C703.579 13.3319 702.901 13.1867 702.307 12.8963C701.712 12.592 701.249 12.1703 700.917 11.6309C700.585 11.0778 700.419 10.4555 700.419 9.76405C700.419 8.67157 700.827 7.80726 701.643 7.17113C702.472 6.53501 703.517 6.21694 704.775 6.21694C705.397 6.21694 705.957 6.27917 706.455 6.40363C706.953 6.51426 707.347 6.63872 707.638 6.77701V6.23769C707.638 5.58773 707.396 5.06223 706.912 4.6612C706.428 4.24633 705.805 4.0389 705.045 4.0389C704.505 4.0389 703.994 4.15644 703.51 4.39153C703.039 4.62662 702.659 4.9516 702.369 5.36647L700.772 4.14261C701.242 3.49266 701.85 2.9879 702.597 2.62835C703.344 2.2688 704.173 2.08903 705.086 2.08903C706.621 2.08903 707.803 2.46932 708.633 3.22991C709.463 3.97667 709.878 5.03458 709.878 6.40363V13H707.638V11.7347H707.534C707.23 12.191 706.801 12.5713 706.248 12.8755C705.695 13.1798 705.058 13.3319 704.339 13.3319ZM704.733 11.4443C705.287 11.4443 705.784 11.3129 706.227 11.0501C706.67 10.7874 707.015 10.4347 707.264 9.99222C707.513 9.5497 707.638 9.0726 707.638 8.56094C707.319 8.38116 706.946 8.23596 706.517 8.12533C706.103 8.0147 705.667 7.95938 705.211 7.95938C704.353 7.95938 703.724 8.13224 703.323 8.47796C702.922 8.80985 702.721 9.24546 702.721 9.78479C702.721 10.2688 702.908 10.6698 703.281 10.9879C703.655 11.2921 704.139 11.4443 704.733 11.4443ZM711.327 2.42092H713.505V3.81072H713.609C713.913 3.31288 714.363 2.90493 714.957 2.58687C715.566 2.25497 716.209 2.08903 716.886 2.08903C718.173 2.08903 719.147 2.46932 719.811 3.22991C720.489 3.97667 720.828 5 720.828 6.29992V13H718.546V6.61107C718.546 5.78133 718.338 5.17286 717.924 4.78566C717.523 4.39845 716.963 4.20484 716.243 4.20484C715.732 4.20484 715.275 4.35005 714.874 4.64045C714.473 4.91703 714.162 5.29041 713.941 5.76059C713.72 6.23077 713.609 6.73553 713.609 7.27485V13H711.327V2.42092ZM726.222 13.3319C724.936 13.3319 723.954 12.9516 723.276 12.191C722.612 11.4166 722.28 10.3449 722.28 8.9758V2.42092H724.562V8.66465C724.562 9.52204 724.763 10.1651 725.164 10.5938C725.579 11.0225 726.118 11.2368 726.782 11.2368C727.321 11.2368 727.798 11.0985 728.213 10.822C728.628 10.5315 728.946 10.1513 729.167 9.68107C729.388 9.21089 729.499 8.70614 729.499 8.16681V2.42092H731.781V13H729.623V11.6309H729.499C729.209 12.1288 728.759 12.5367 728.151 12.8548C727.542 13.1729 726.899 13.3319 726.222 13.3319ZM712.494 15.4209H714.672V16.9767H714.776C715.011 16.4373 715.419 15.9948 716 15.6491C716.581 15.2895 717.196 15.1098 717.846 15.1098C718.358 15.1098 718.786 15.1789 719.132 15.3172V17.6819C718.523 17.4607 717.977 17.35 717.493 17.35C716.968 17.35 716.498 17.4883 716.083 17.7649C715.682 18.0415 715.364 18.4149 715.128 18.8851C714.893 19.3414 714.776 19.8462 714.776 20.3993V26H712.494V15.4209ZM722.798 26.3319C722.037 26.3319 721.359 26.1867 720.765 25.8963C720.17 25.592 719.707 25.1703 719.375 24.6309C719.043 24.0778 718.877 23.4555 718.877 22.764C718.877 21.6716 719.285 20.8073 720.101 20.1711C720.931 19.535 721.975 19.2169 723.233 19.2169C723.856 19.2169 724.416 19.2792 724.913 19.4036C725.411 19.5143 725.805 19.6387 726.096 19.777V19.2377C726.096 18.5877 725.854 18.0622 725.37 17.6612C724.886 17.2463 724.264 17.0389 723.503 17.0389C722.964 17.0389 722.452 17.1564 721.968 17.3915C721.498 17.6266 721.117 17.9516 720.827 18.3665L719.23 17.1426C719.7 16.4927 720.308 15.9879 721.055 15.6284C721.802 15.2688 722.632 15.089 723.544 15.089C725.079 15.089 726.262 15.4693 727.092 16.2299C727.921 16.9767 728.336 18.0346 728.336 19.4036V26H726.096V24.7347H725.992C725.688 25.191 725.259 25.5713 724.706 25.8755C724.153 26.1798 723.517 26.3319 722.798 26.3319ZM723.192 24.4443C723.745 24.4443 724.243 24.3129 724.685 24.0501C725.128 23.7874 725.474 23.4347 725.722 22.9922C725.971 22.5497 726.096 22.0726 726.096 21.5609C725.778 21.3812 725.404 21.236 724.976 21.1253C724.561 21.0147 724.125 20.9594 723.669 20.9594C722.811 20.9594 722.182 21.1322 721.781 21.478C721.38 21.8099 721.18 22.2455 721.18 22.7848C721.18 23.2688 721.366 23.6698 721.74 23.9879C722.113 24.2921 722.597 24.4443 723.192 24.4443ZM733.003 26.3319C732.243 26.3319 731.565 26.1867 730.97 25.8963C730.376 25.592 729.912 25.1703 729.581 24.6309C729.249 24.0778 729.083 23.4555 729.083 22.764C729.083 21.6716 729.491 20.8073 730.307 20.1711C731.136 19.535 732.18 19.2169 733.439 19.2169C734.061 19.2169 734.621 19.2792 735.119 19.4036C735.617 19.5143 736.011 19.6387 736.301 19.777V19.2377C736.301 18.5877 736.059 18.0622 735.575 17.6612C735.091 17.2463 734.469 17.0389 733.708 17.0389C733.169 17.0389 732.657 17.1564 732.173 17.3915C731.703 17.6266 731.323 17.9516 731.033 18.3665L729.435 17.1426C729.906 16.4927 730.514 15.9879 731.261 15.6284C732.008 15.2688 732.837 15.089 733.75 15.089C735.285 15.089 736.467 15.4693 737.297 16.2299C738.127 16.9767 738.542 18.0346 738.542 19.4036V26H736.301V24.7347H736.198C735.893 25.191 735.465 25.5713 734.912 25.8755C734.358 26.1798 733.722 26.3319 733.003 26.3319ZM733.397 24.4443C733.95 24.4443 734.448 24.3129 734.891 24.0501C735.333 23.7874 735.679 23.4347 735.928 22.9922C736.177 22.5497 736.301 22.0726 736.301 21.5609C735.983 21.3812 735.61 21.236 735.181 21.1253C734.766 21.0147 734.331 20.9594 733.874 20.9594C733.017 20.9594 732.388 21.1322 731.987 21.478C731.586 21.8099 731.385 22.2455 731.385 22.7848C731.385 23.2688 731.572 23.6698 731.945 23.9879C732.319 24.2921 732.803 24.4443 733.397 24.4443ZM744.661 30.8124C743.361 30.8124 742.282 30.5151 741.425 29.9205C740.581 29.3258 740.014 28.6206 739.724 27.8047L741.86 26.9127C742.082 27.4659 742.434 27.9084 742.918 28.2403C743.416 28.586 743.997 28.7589 744.661 28.7589C745.629 28.7589 746.382 28.4685 746.922 27.8876C747.475 27.3207 747.752 26.5186 747.752 25.4814V24.5065H747.627C747.281 25.0043 746.818 25.3984 746.237 25.6889C745.67 25.9654 745.013 26.1037 744.267 26.1037C743.382 26.1037 742.559 25.8755 741.798 25.4192C741.038 24.9628 740.429 24.3198 739.973 23.4901C739.53 22.6465 739.309 21.6854 739.309 20.6067C739.309 19.5281 739.53 18.5739 739.973 17.7442C740.429 16.9006 741.038 16.2507 741.798 15.7943C742.559 15.3241 743.382 15.089 744.267 15.089C745 15.089 745.656 15.2342 746.237 15.5246C746.818 15.815 747.281 16.2092 747.627 16.707H747.752V15.4209H749.93V25.4192C749.93 26.567 749.708 27.5419 749.266 28.344C748.823 29.1599 748.201 29.7753 747.399 30.1901C746.611 30.605 745.698 30.8124 744.661 30.8124ZM744.682 24.0294C745.235 24.0294 745.746 23.898 746.217 23.6353C746.687 23.3587 747.06 22.9646 747.337 22.4529C747.613 21.9274 747.752 21.312 747.752 20.6067C747.752 19.5281 747.454 18.6914 746.86 18.0968C746.279 17.4883 745.553 17.1841 744.682 17.1841C744.115 17.1841 743.596 17.3224 743.126 17.599C742.656 17.8617 742.282 18.2489 742.006 18.7606C741.729 19.2723 741.591 19.8876 741.591 20.6067C741.591 21.3258 741.729 21.9412 742.006 22.4529C742.282 22.9646 742.656 23.3587 743.126 23.6353C743.596 23.898 744.115 24.0294 744.682 24.0294Z" fill="white"/>
<path d="M702.307 12.8963L702.26 12.9864L702.262 12.9872L702.307 12.8963ZM700.917 11.6309L700.83 11.683L700.831 11.684L700.917 11.6309ZM701.643 7.17113L701.581 7.09083L701.581 7.09134L701.643 7.17113ZM706.455 6.40363L706.431 6.50183L706.433 6.50241L706.455 6.40363ZM707.638 6.77701L707.594 6.86837L707.739 6.93727V6.77701H707.638ZM706.912 4.6612L706.846 4.73803L706.847 4.73911L706.912 4.6612ZM703.51 4.39153L703.465 4.30051L703.464 4.30103L703.51 4.39153ZM702.369 5.36647L702.307 5.44679L702.391 5.51104L702.452 5.42449L702.369 5.36647ZM700.772 4.14261L700.69 4.08331L700.632 4.16306L700.71 4.22293L700.772 4.14261ZM702.597 2.62835L702.641 2.71952V2.71952L702.597 2.62835ZM708.633 3.22991L708.565 3.3045L708.566 3.30512L708.633 3.22991ZM709.878 13V13.1012H709.979V13H709.878ZM707.638 13H707.536V13.1012H707.638V13ZM707.638 11.7347H707.739V11.6335H707.638V11.7347ZM707.534 11.7347V11.6335H707.48L707.45 11.6785L707.534 11.7347ZM706.227 11.0501L706.279 11.1371V11.1371L706.227 11.0501ZM707.264 9.99222L707.176 9.94261V9.94261L707.264 9.99222ZM707.638 8.56094H707.739V8.5019L707.687 8.47285L707.638 8.56094ZM706.517 8.12533L706.491 8.2231L706.492 8.2233L706.517 8.12533ZM703.323 8.47796L703.387 8.55593L703.389 8.5546L703.323 8.47796ZM703.281 10.9879L703.216 11.0649L703.218 11.0663L703.281 10.9879ZM704.339 13.3319V13.2307C703.592 13.2307 702.93 13.0881 702.351 12.8054L702.307 12.8963L702.262 12.9872C702.873 13.2853 703.566 13.4331 704.339 13.4331V13.3319ZM702.307 12.8963L702.353 12.8062C701.774 12.5099 701.325 12.1006 701.003 11.5779L700.917 11.6309L700.831 11.684C701.173 12.24 701.65 12.6742 702.26 12.9864L702.307 12.8963ZM700.917 11.6309L701.003 11.5789C700.682 11.0426 700.52 10.4385 700.52 9.76405H700.419H700.318C700.318 10.4725 700.488 11.113 700.83 11.683L700.917 11.6309ZM700.419 9.76405H700.52C700.52 8.70073 700.915 7.86668 701.705 7.25093L701.643 7.17113L701.581 7.09134C700.738 7.74785 700.318 8.64241 700.318 9.76405H700.419ZM701.643 7.17113L701.704 7.25144C702.513 6.63144 703.534 6.31813 704.775 6.31813V6.21694V6.11576C703.499 6.11576 702.432 6.43857 701.581 7.09083L701.643 7.17113ZM704.775 6.21694V6.31813C705.391 6.31813 705.942 6.37972 706.431 6.5018L706.455 6.40363L706.48 6.30547C705.972 6.17863 705.404 6.11576 704.775 6.11576V6.21694ZM706.455 6.40363L706.433 6.50241C706.927 6.61223 707.313 6.73469 707.594 6.86837L707.638 6.77701L707.681 6.68565C707.381 6.54276 706.979 6.4163 706.477 6.30486L706.455 6.40363ZM707.638 6.77701H707.739V6.23769H707.638H707.536V6.77701H707.638ZM707.638 6.23769H707.739C707.739 5.55878 707.484 5.00428 706.976 4.58328L706.912 4.6612L706.847 4.73911C707.307 5.12018 707.536 5.61668 707.536 6.23769H707.638ZM706.912 4.6612L706.977 4.58437C706.472 4.15087 705.824 3.93771 705.045 3.93771V4.0389V4.14008C705.786 4.14008 706.383 4.34179 706.846 4.73802L706.912 4.6612ZM705.045 4.0389V3.93771C704.49 3.93771 703.963 4.05872 703.465 4.30052L703.51 4.39153L703.554 4.48255C704.024 4.25417 704.521 4.14008 705.045 4.14008V4.0389ZM703.51 4.39153L703.464 4.30103C702.98 4.54335 702.586 4.87925 702.286 5.30844L702.369 5.36647L702.452 5.42449C702.732 5.02395 703.099 4.7099 703.555 4.48204L703.51 4.39153ZM702.369 5.36647L702.43 5.28615L700.833 4.06229L700.772 4.14261L700.71 4.22293L702.307 5.44679L702.369 5.36647ZM700.772 4.14261L700.854 4.20192C701.314 3.56605 701.909 3.07203 702.641 2.71952L702.597 2.62835L702.553 2.53718C701.792 2.90378 701.17 3.41927 700.69 4.08331L700.772 4.14261ZM702.597 2.62835L702.641 2.71952C703.373 2.36721 704.187 2.19022 705.086 2.19022V2.08903V1.98784C704.16 1.98784 703.315 2.1704 702.553 2.53718L702.597 2.62835ZM705.086 2.08903V2.19022C706.605 2.19022 707.76 2.56641 708.565 3.3045L708.633 3.22991L708.702 3.15532C707.847 2.37223 706.637 1.98784 705.086 1.98784V2.08903ZM708.633 3.22991L708.566 3.30512C709.369 4.02845 709.777 5.05624 709.777 6.40363H709.878H709.979C709.979 5.01291 709.557 3.92489 708.701 3.1547L708.633 3.22991ZM709.878 6.40363H709.777V13H709.878H709.979V6.40363H709.878ZM709.878 13V12.8988H707.638V13V13.1012H709.878V13ZM707.638 13H707.739V11.7347H707.638H707.536V13H707.638ZM707.638 11.7347V11.6335H707.534V11.7347V11.8358H707.638V11.7347ZM707.534 11.7347L707.45 11.6785C707.156 12.1194 706.74 12.4893 706.199 12.7869L706.248 12.8755L706.297 12.9642C706.862 12.6533 707.303 12.2626 707.618 11.7908L707.534 11.7347ZM706.248 12.8755L706.199 12.7869C705.663 13.0818 705.044 13.2307 704.339 13.2307V13.3319V13.4331C705.073 13.4331 705.726 13.2777 706.297 12.9642L706.248 12.8755ZM704.733 11.4443V11.5454C705.303 11.5454 705.819 11.4099 706.279 11.1371L706.227 11.0501L706.175 10.9631C705.75 11.2159 705.27 11.3431 704.733 11.3431V11.4443ZM706.227 11.0501L706.279 11.1371C706.736 10.8655 707.095 10.5 707.352 10.0418L707.264 9.99222L707.176 9.94261C706.936 10.3695 706.603 10.7093 706.175 10.9631L706.227 11.0501ZM707.264 9.99222L707.352 10.0418C707.61 9.58404 707.739 9.08984 707.739 8.56094H707.638H707.536C707.536 9.05537 707.416 9.51536 707.176 9.94261L707.264 9.99222ZM707.638 8.56094L707.687 8.47285C707.36 8.28791 706.978 8.13974 706.543 8.02735L706.517 8.12533L706.492 8.2233C706.914 8.33217 707.279 8.47441 707.588 8.64902L707.638 8.56094ZM706.517 8.12533L706.543 8.02756C706.12 7.91452 705.675 7.85819 705.211 7.85819V7.95938V8.06057C705.659 8.06057 706.085 8.11487 706.491 8.2231L706.517 8.12533ZM705.211 7.95938V7.85819C704.343 7.85819 703.685 8.03251 703.257 8.40132L703.323 8.47796L703.389 8.5546C703.763 8.23197 704.363 8.06057 705.211 8.06057V7.95938ZM703.323 8.47796L703.258 8.40001C702.833 8.75191 702.62 9.21657 702.62 9.78479H702.721H702.823C702.823 9.27436 703.011 8.8678 703.387 8.55592L703.323 8.47796ZM702.721 9.78479H702.62C702.62 10.2989 702.82 10.7279 703.216 11.0649L703.281 10.9879L703.347 10.9109C702.996 10.6117 702.823 10.2387 702.823 9.78479H702.721ZM703.281 10.9879L703.218 11.0663C703.613 11.3885 704.121 11.5454 704.733 11.5454V11.4443V11.3431C704.157 11.3431 703.697 11.1958 703.345 10.9095L703.281 10.9879ZM711.327 2.42092V2.31973H711.226V2.42092H711.327ZM713.505 2.42092H713.606V2.31973H713.505V2.42092ZM713.505 3.81072H713.404V3.91191H713.505V3.81072ZM713.609 3.81072V3.91191H713.666L713.695 3.86349L713.609 3.81072ZM714.957 2.58687L715.005 2.6761L715.006 2.6757L714.957 2.58687ZM719.811 3.22991L719.735 3.29646L719.736 3.29791L719.811 3.22991ZM720.828 13V13.1012H720.929V13H720.828ZM718.546 13H718.445V13.1012H718.546V13ZM717.924 4.78566L717.853 4.85846L717.855 4.85963L717.924 4.78566ZM714.874 4.64045L714.932 4.72377L714.934 4.72241L714.874 4.64045ZM713.941 5.76059L714.032 5.80368V5.80368L713.941 5.76059ZM713.609 13V13.1012H713.71V13H713.609ZM711.327 13H711.226V13.1012H711.327V13ZM711.327 2.42092V2.52211H713.505V2.42092V2.31973H711.327V2.42092ZM713.505 2.42092H713.404V3.81072H713.505H713.606V2.42092H713.505ZM713.505 3.81072V3.91191H713.609V3.81072V3.70953H713.505V3.81072ZM713.609 3.81072L713.695 3.86349C713.989 3.38328 714.424 2.987 715.005 2.67609L714.957 2.58687L714.91 2.49764C714.302 2.82286 713.838 3.24248 713.523 3.75796L713.609 3.81072ZM714.957 2.58687L715.006 2.6757C715.6 2.35172 716.226 2.19022 716.886 2.19022V2.08903V1.98784C716.192 1.98784 715.532 2.15823 714.909 2.49804L714.957 2.58687ZM716.886 2.08903V2.19022C718.152 2.19022 719.095 2.56361 719.735 3.29644L719.811 3.22991L719.888 3.16338C719.199 2.37503 718.193 1.98784 716.886 1.98784V2.08903ZM719.811 3.22991L719.736 3.29791C720.393 4.02116 720.727 5.01765 720.727 6.29992H720.828H720.929C720.929 4.98235 720.585 3.93218 719.886 3.16191L719.811 3.22991ZM720.828 6.29992H720.727V13H720.828H720.929V6.29992H720.828ZM720.828 13V12.8988H718.546V13V13.1012H720.828V13ZM718.546 13H718.647V6.61107H718.546H718.445V13H718.546ZM718.546 6.61107H718.647C718.647 5.76637 718.436 5.12542 717.993 4.71168L717.924 4.78566L717.855 4.85963C718.241 5.2203 718.445 5.7963 718.445 6.61107H718.546ZM717.924 4.78566L717.994 4.71286C717.569 4.3026 716.981 4.10366 716.243 4.10366V4.20484V4.30603C716.944 4.30603 717.476 4.49429 717.853 4.85845L717.924 4.78566ZM716.243 4.20484V4.10366C715.711 4.10366 715.234 4.25515 714.815 4.5585L714.874 4.64045L714.934 4.72241C715.317 4.44494 715.752 4.30603 716.243 4.30603V4.20484ZM714.874 4.64045L714.817 4.55715C714.4 4.84457 714.078 5.23226 713.849 5.71751L713.941 5.76059L714.032 5.80368C714.247 5.34856 714.546 4.98949 714.932 4.72375L714.874 4.64045ZM713.941 5.76059L713.849 5.71751C713.622 6.20168 713.508 6.72121 713.508 7.27485H713.609H713.71C713.71 6.74984 713.818 6.25986 714.032 5.80368L713.941 5.76059ZM713.609 7.27485H713.508V13H713.609H713.71V7.27485H713.609ZM713.609 13V12.8988H711.327V13V13.1012H713.609V13ZM711.327 13H711.428V2.42092H711.327H711.226V13H711.327ZM723.276 12.191L723.199 12.2569L723.2 12.2583L723.276 12.191ZM722.28 2.42092V2.31973H722.179V2.42092H722.28ZM724.562 2.42092H724.663V2.31973H724.562V2.42092ZM725.164 10.5938L725.09 10.6629L725.091 10.6641L725.164 10.5938ZM728.213 10.822L728.269 10.9062L728.271 10.9049L728.213 10.822ZM729.167 9.68107L729.076 9.63799V9.63799L729.167 9.68107ZM729.499 2.42092V2.31973H729.398V2.42092H729.499ZM731.781 2.42092H731.882V2.31973H731.781V2.42092ZM731.781 13V13.1012H731.882V13H731.781ZM729.623 13H729.522V13.1012H729.623V13ZM729.623 11.6309H729.725V11.5298H729.623V11.6309ZM729.499 11.6309V11.5298H729.441L729.412 11.58L729.499 11.6309ZM726.222 13.3319V13.2307C724.956 13.2307 724.005 12.8573 723.352 12.1237L723.276 12.191L723.2 12.2583C723.902 13.0459 724.915 13.4331 726.222 13.4331V13.3319ZM723.276 12.191L723.353 12.1252C722.709 11.3745 722.382 10.329 722.382 8.9758H722.28H722.179C722.179 10.3607 722.515 11.4586 723.199 12.2569L723.276 12.191ZM722.28 8.9758H722.382V2.42092H722.28H722.179V8.9758H722.28ZM722.28 2.42092V2.52211H724.562V2.42092V2.31973H722.28V2.42092ZM724.562 2.42092H724.461V8.66465H724.562H724.663V2.42092H724.562ZM724.562 8.66465H724.461C724.461 9.53602 724.665 10.2084 725.09 10.6629L725.164 10.5938L725.238 10.5247C724.861 10.1218 724.663 9.50806 724.663 8.66465H724.562ZM725.164 10.5938L725.091 10.6641C725.527 11.1149 726.094 11.338 726.782 11.338V11.2368V11.1356C726.142 11.1356 725.63 10.9301 725.236 10.5234L725.164 10.5938ZM726.782 11.2368V11.338C727.339 11.338 727.836 11.1947 728.269 10.9061L728.213 10.822L728.157 10.7378C727.76 11.0023 727.303 11.1356 726.782 11.1356V11.2368ZM728.213 10.822L728.271 10.9049C728.701 10.6041 729.03 10.2099 729.259 9.72416L729.167 9.68107L729.076 9.63799C728.862 10.0926 728.555 10.459 728.155 10.7391L728.213 10.822ZM729.167 9.68107L729.259 9.72416C729.487 9.23998 729.6 8.72045 729.6 8.16681H729.499H729.398C729.398 8.69182 729.29 9.1818 729.076 9.63799L729.167 9.68107ZM729.499 8.16681H729.6V2.42092H729.499H729.398V8.16681H729.499ZM729.499 2.42092V2.52211H731.781V2.42092V2.31973H729.499V2.42092ZM731.781 2.42092H731.68V13H731.781H731.882V2.42092H731.781ZM731.781 13V12.8988H729.623V13V13.1012H731.781V13ZM729.623 13H729.725V11.6309H729.623H729.522V13H729.623ZM729.623 11.6309V11.5298H729.499V11.6309V11.7321H729.623V11.6309ZM729.499 11.6309L729.412 11.58C729.133 12.0584 728.699 12.4542 728.104 12.7651L728.151 12.8548L728.198 12.9445C728.82 12.6193 729.285 12.1991 729.586 11.6819L729.499 11.6309ZM728.151 12.8548L728.104 12.7651C727.51 13.0757 726.883 13.2307 726.222 13.2307V13.3319V13.4331C726.916 13.4331 727.575 13.27 728.198 12.9445L728.151 12.8548ZM712.494 15.4209V15.3197H712.393V15.4209H712.494ZM714.672 15.4209H714.773V15.3197H714.672V15.4209ZM714.672 16.9767H714.571V17.0779H714.672V16.9767ZM714.776 16.9767V17.0779H714.842L714.869 17.0171L714.776 16.9767ZM716 15.6491L716.051 15.7361L716.053 15.7351L716 15.6491ZM719.132 15.3172H719.233V15.2487L719.17 15.2233L719.132 15.3172ZM719.132 17.6819L719.097 17.777L719.233 17.8264V17.6819H719.132ZM716.083 17.7649L716.027 17.6807L716.025 17.6816L716.083 17.7649ZM715.128 18.885L715.218 18.9314L715.219 18.9303L715.128 18.885ZM714.776 26V26.1012H714.877V26H714.776ZM712.494 26H712.393V26.1012H712.494V26ZM712.494 15.4209V15.5221H714.672V15.4209V15.3197H712.494V15.4209ZM714.672 15.4209H714.571V16.9767H714.672H714.773V15.4209H714.672ZM714.672 16.9767V17.0779H714.776V16.9767V16.8755H714.672V16.9767ZM714.776 16.9767L714.869 17.0171C715.094 16.5 715.486 16.0726 716.051 15.736L716 15.6491L715.948 15.5621C715.352 15.917 714.928 16.3747 714.683 16.9362L714.776 16.9767ZM716 15.6491L716.053 15.7351C716.619 15.385 717.216 15.211 717.846 15.211V15.1098V15.0086C717.176 15.0086 716.542 15.1941 715.946 15.5631L716 15.6491ZM717.846 15.1098V15.211C718.349 15.211 718.764 15.2791 719.094 15.4112L719.132 15.3172L719.17 15.2233C718.808 15.0788 718.366 15.0086 717.846 15.0086V15.1098ZM719.132 15.3172H719.031V17.6819H719.132H719.233V15.3172H719.132ZM719.132 17.6819L719.167 17.5868C718.55 17.3628 717.992 17.2489 717.493 17.2489V17.35V17.4512C717.962 17.4512 718.496 17.5585 719.097 17.777L719.132 17.6819ZM717.493 17.35V17.2489C716.949 17.2489 716.459 17.3924 716.027 17.6807L716.083 17.7649L716.139 17.8491C716.536 17.5842 716.987 17.4512 717.493 17.4512V17.35ZM716.083 17.7649L716.025 17.6816C715.609 17.9686 715.28 18.3556 715.038 18.8398L715.128 18.885L715.219 18.9303C715.447 18.4741 715.754 18.1143 716.14 17.8482L716.083 17.7649ZM715.128 18.885L715.039 18.8387C714.795 19.3105 714.675 19.8313 714.675 20.3993H714.776H714.877C714.877 19.861 714.991 19.3723 715.218 18.9314L715.128 18.885ZM714.776 20.3993H714.675V26H714.776H714.877V20.3993H714.776ZM714.776 26V25.8988H712.494V26V26.1012H714.776V26ZM712.494 26H712.595V15.4209H712.494H712.393V26H712.494ZM720.765 25.8963L720.719 25.9864L720.72 25.9872L720.765 25.8963ZM719.375 24.6309L719.288 24.683L719.289 24.684L719.375 24.6309ZM720.101 20.1711L720.039 20.0908L720.039 20.0913L720.101 20.1711ZM724.913 19.4036L724.889 19.5018L724.892 19.5024L724.913 19.4036ZM726.096 19.777L726.052 19.8684L726.197 19.9373V19.777H726.096ZM725.37 17.6612L725.304 17.738L725.305 17.7391L725.37 17.6612ZM721.968 17.3915L721.924 17.3005L721.923 17.301L721.968 17.3915ZM720.827 18.3665L720.766 18.4468L720.849 18.511L720.91 18.4245L720.827 18.3665ZM719.23 17.1426L719.148 17.0833L719.09 17.1631L719.168 17.2229L719.23 17.1426ZM721.055 15.6284L721.099 15.7195V15.7195L721.055 15.6284ZM727.092 16.2299L727.023 16.3045L727.024 16.3051L727.092 16.2299ZM728.336 26V26.1012H728.437V26H728.336ZM726.096 26H725.995V26.1012H726.096V26ZM726.096 24.7347H726.197V24.6335H726.096V24.7347ZM725.992 24.7347V24.6335H725.938L725.908 24.6785L725.992 24.7347ZM724.685 24.0501L724.737 24.1371V24.1371L724.685 24.0501ZM725.722 22.9922L725.634 22.9426V22.9426L725.722 22.9922ZM726.096 21.5609H726.197V21.5019L726.146 21.4728L726.096 21.5609ZM724.976 21.1253L724.95 21.2231L724.95 21.2233L724.976 21.1253ZM721.781 21.478L721.846 21.5559L721.847 21.5546L721.781 21.478ZM721.74 23.9879L721.674 24.0649L721.676 24.0663L721.74 23.9879ZM722.798 26.3319V26.2307C722.05 26.2307 721.388 26.0881 720.809 25.8054L720.765 25.8963L720.72 25.9872C721.331 26.2853 722.024 26.4331 722.798 26.4331V26.3319ZM720.765 25.8963L720.811 25.8062C720.232 25.5099 719.783 25.1006 719.461 24.5779L719.375 24.6309L719.289 24.684C719.631 25.24 720.109 25.6742 720.719 25.9864L720.765 25.8963ZM719.375 24.6309L719.462 24.5789C719.14 24.0426 718.978 23.4385 718.978 22.764H718.877H718.776C718.776 23.4725 718.946 24.113 719.288 24.683L719.375 24.6309ZM718.877 22.764H718.978C718.978 21.7007 719.373 20.8667 720.163 20.2509L720.101 20.1711L720.039 20.0913C719.197 20.7478 718.776 21.6424 718.776 22.764H718.877ZM720.101 20.1711L720.163 20.2514C720.971 19.6314 721.992 19.3181 723.233 19.3181V19.2169V19.1158C721.957 19.1158 720.89 19.4386 720.039 20.0908L720.101 20.1711ZM723.233 19.2169V19.3181C723.849 19.3181 724.401 19.3797 724.889 19.5018L724.913 19.4036L724.938 19.3055C724.431 19.1786 723.862 19.1158 723.233 19.1158V19.2169ZM724.913 19.4036L724.892 19.5024C725.386 19.6122 725.772 19.7347 726.052 19.8684L726.096 19.777L726.139 19.6857C725.839 19.5428 725.437 19.4163 724.935 19.3049L724.913 19.4036ZM726.096 19.777H726.197V19.2377H726.096H725.995V19.777H726.096ZM726.096 19.2377H726.197C726.197 18.5588 725.942 18.0043 725.434 17.5833L725.37 17.6612L725.305 17.7391C725.765 18.1202 725.995 18.6167 725.995 19.2377H726.096ZM725.37 17.6612L725.436 17.5844C724.93 17.1509 724.283 16.9377 723.503 16.9377V17.0389V17.1401C724.244 17.1401 724.842 17.3418 725.304 17.738L725.37 17.6612ZM723.503 17.0389V16.9377C722.948 16.9377 722.422 17.0587 721.924 17.3005L721.968 17.3915L722.012 17.4826C722.482 17.2542 722.979 17.1401 723.503 17.1401V17.0389ZM721.968 17.3915L721.923 17.301C721.438 17.5434 721.045 17.8793 720.744 18.3084L720.827 18.3665L720.91 18.4245C721.19 18.024 721.557 17.7099 722.013 17.482L721.968 17.3915ZM720.827 18.3665L720.889 18.2861L719.291 17.0623L719.23 17.1426L719.168 17.2229L720.766 18.4468L720.827 18.3665ZM719.23 17.1426L719.312 17.2019C719.772 16.566 720.367 16.072 721.099 15.7195L721.055 15.6284L721.011 15.5372C720.25 15.9038 719.628 16.4193 719.148 17.0833L719.23 17.1426ZM721.055 15.6284L721.099 15.7195C721.831 15.3672 722.645 15.1902 723.544 15.1902V15.089V14.9878C722.618 14.9878 721.773 15.1704 721.011 15.5372L721.055 15.6284ZM723.544 15.089V15.1902C725.063 15.1902 726.218 15.5664 727.023 16.3045L727.092 16.2299L727.16 16.1553C726.306 15.3722 725.095 14.9878 723.544 14.9878V15.089ZM727.092 16.2299L727.024 16.3051C727.828 17.0284 728.235 18.0562 728.235 19.4036H728.336H728.437C728.437 18.0129 728.015 16.9249 727.159 16.1547L727.092 16.2299ZM728.336 19.4036H728.235V26H728.336H728.437V19.4036H728.336ZM728.336 26V25.8988H726.096V26V26.1012H728.336V26ZM726.096 26H726.197V24.7347H726.096H725.995V26H726.096ZM726.096 24.7347V24.6335H725.992V24.7347V24.8358H726.096V24.7347ZM725.992 24.7347L725.908 24.6785C725.614 25.1194 725.198 25.4893 724.657 25.7869L724.706 25.8755L724.755 25.9642C725.32 25.6533 725.762 25.2626 726.076 24.7908L725.992 24.7347ZM724.706 25.8755L724.657 25.7869C724.121 26.0818 723.502 26.2307 722.798 26.2307V26.3319V26.4331C723.531 26.4331 724.185 26.2777 724.755 25.9642L724.706 25.8755ZM723.192 24.4443V24.5454C723.762 24.5454 724.278 24.4099 724.737 24.1371L724.685 24.0501L724.634 23.9631C724.208 24.2159 723.728 24.3431 723.192 24.3431V24.4443ZM724.685 24.0501L724.737 24.1371C725.195 23.8655 725.553 23.5 725.811 23.0418L725.722 22.9922L725.634 22.9426C725.394 23.3695 725.061 23.7093 724.634 23.9631L724.685 24.0501ZM725.722 22.9922L725.811 23.0418C726.068 22.584 726.197 22.0898 726.197 21.5609H726.096H725.995C725.995 22.0554 725.875 22.5154 725.634 22.9426L725.722 22.9922ZM726.096 21.5609L726.146 21.4728C725.818 21.2879 725.437 21.1397 725.001 21.0273L724.976 21.1253L724.95 21.2233C725.372 21.3322 725.737 21.4744 726.046 21.649L726.096 21.5609ZM724.976 21.1253L725.002 21.0276C724.578 20.9145 724.133 20.8582 723.669 20.8582V20.9594V21.0606C724.117 21.0606 724.544 21.1149 724.95 21.2231L724.976 21.1253ZM723.669 20.9594V20.8582C722.801 20.8582 722.143 21.0325 721.715 21.4013L721.781 21.478L721.847 21.5546C722.222 21.232 722.822 21.0606 723.669 21.0606V20.9594ZM721.781 21.478L721.717 21.4C721.292 21.7519 721.078 22.2166 721.078 22.7848H721.18H721.281C721.281 22.2744 721.469 21.8678 721.846 21.5559L721.781 21.478ZM721.18 22.7848H721.078C721.078 23.2989 721.279 23.7279 721.674 24.0649L721.74 23.9879L721.805 23.9109C721.454 23.6117 721.281 23.2387 721.281 22.7848H721.18ZM721.74 23.9879L721.676 24.0663C722.071 24.3885 722.579 24.5454 723.192 24.5454V24.4443V24.3431C722.615 24.3431 722.155 24.1958 721.804 23.9095L721.74 23.9879ZM730.97 25.8963L730.924 25.9864L730.926 25.9872L730.97 25.8963ZM729.581 24.6309L729.494 24.683L729.494 24.684L729.581 24.6309ZM730.307 20.1711L730.245 20.0908L730.244 20.0913L730.307 20.1711ZM735.119 19.4036L735.094 19.5018L735.097 19.5024L735.119 19.4036ZM736.301 19.777L736.258 19.8684L736.403 19.9373V19.777H736.301ZM735.575 17.6612L735.51 17.738L735.511 17.7391L735.575 17.6612ZM732.173 17.3915L732.129 17.3005L732.128 17.301L732.173 17.3915ZM731.033 18.3665L730.971 18.4468L731.055 18.511L731.115 18.4245L731.033 18.3665ZM729.435 17.1426L729.353 17.0833L729.296 17.1631L729.374 17.2229L729.435 17.1426ZM731.261 15.6284L731.305 15.7195V15.7195L731.261 15.6284ZM737.297 16.2299L737.229 16.3045L737.229 16.3051L737.297 16.2299ZM738.542 26V26.1012H738.643V26H738.542ZM736.301 26H736.2V26.1012H736.301V26ZM736.301 24.7347H736.403V24.6335H736.301V24.7347ZM736.198 24.7347V24.6335H736.144L736.113 24.6785L736.198 24.7347ZM734.891 24.0501L734.942 24.1371V24.1371L734.891 24.0501ZM735.928 22.9922L735.84 22.9426V22.9426L735.928 22.9922ZM736.301 21.5609H736.403V21.5019L736.351 21.4728L736.301 21.5609ZM735.181 21.1253L735.155 21.2231L735.156 21.2233L735.181 21.1253ZM731.987 21.478L732.051 21.5559L732.053 21.5546L731.987 21.478ZM731.945 23.9879L731.88 24.0649L731.881 24.0663L731.945 23.9879ZM733.003 26.3319V26.2307C732.256 26.2307 731.594 26.0881 731.015 25.8054L730.97 25.8963L730.926 25.9872C731.536 26.2853 732.23 26.4331 733.003 26.4331V26.3319ZM730.97 25.8963L731.016 25.8062C730.437 25.5099 729.988 25.1006 729.667 24.5779L729.581 24.6309L729.494 24.684C729.837 25.24 730.314 25.6742 730.924 25.9864L730.97 25.8963ZM729.581 24.6309L729.667 24.5789C729.346 24.0426 729.184 23.4385 729.184 22.764H729.083H728.982C728.982 23.4725 729.152 24.113 729.494 24.683L729.581 24.6309ZM729.083 22.764H729.184C729.184 21.7007 729.579 20.8667 730.369 20.2509L730.307 20.1711L730.244 20.0913C729.402 20.7478 728.982 21.6424 728.982 22.764H729.083ZM730.307 20.1711L730.368 20.2514C731.177 19.6314 732.198 19.3181 733.439 19.3181V19.2169V19.1158C732.163 19.1158 731.096 19.4386 730.245 20.0908L730.307 20.1711ZM733.439 19.2169V19.3181C734.055 19.3181 734.606 19.3797 735.094 19.5018L735.119 19.4036L735.144 19.3055C734.636 19.1786 734.068 19.1158 733.439 19.1158V19.2169ZM735.119 19.4036L735.097 19.5024C735.591 19.6122 735.977 19.7347 736.258 19.8684L736.301 19.777L736.345 19.6857C736.045 19.5428 735.642 19.4163 735.141 19.3049L735.119 19.4036ZM736.301 19.777H736.403V19.2377H736.301H736.2V19.777H736.301ZM736.301 19.2377H736.403C736.403 18.5588 736.148 18.0043 735.64 17.5833L735.575 17.6612L735.511 17.7391C735.971 18.1202 736.2 18.6167 736.2 19.2377H736.301ZM735.575 17.6612L735.641 17.5844C735.135 17.1509 734.488 16.9377 733.708 16.9377V17.0389V17.1401C734.45 17.1401 735.047 17.3418 735.51 17.738L735.575 17.6612ZM733.708 17.0389V16.9377C733.154 16.9377 732.627 17.0587 732.129 17.3005L732.173 17.3915L732.218 17.4826C732.688 17.2542 733.184 17.1401 733.708 17.1401V17.0389ZM732.173 17.3915L732.128 17.301C731.644 17.5434 731.25 17.8793 730.95 18.3084L731.033 18.3665L731.115 18.4245C731.396 18.024 731.763 17.7099 732.219 17.482L732.173 17.3915ZM731.033 18.3665L731.094 18.2861L729.497 17.0623L729.435 17.1426L729.374 17.2229L730.971 18.4468L731.033 18.3665ZM729.435 17.1426L729.517 17.2019C729.977 16.566 730.573 16.072 731.305 15.7195L731.261 15.6284L731.217 15.5372C730.455 15.9038 729.834 16.4193 729.353 17.0833L729.435 17.1426ZM731.261 15.6284L731.305 15.7195C732.036 15.3672 732.851 15.1902 733.75 15.1902V15.089V14.9878C732.824 14.9878 731.979 15.1704 731.217 15.5372L731.261 15.6284ZM733.75 15.089V15.1902C735.269 15.1902 736.424 15.5664 737.229 16.3045L737.297 16.2299L737.365 16.1553C736.511 15.3722 735.301 14.9878 733.75 14.9878V15.089ZM737.297 16.2299L737.229 16.3051C738.033 17.0284 738.44 18.0562 738.44 19.4036H738.542H738.643C738.643 18.0129 738.221 16.9249 737.365 16.1547L737.297 16.2299ZM738.542 19.4036H738.44V26H738.542H738.643V19.4036H738.542ZM738.542 26V25.8988H736.301V26V26.1012H738.542V26ZM736.301 26H736.403V24.7347H736.301H736.2V26H736.301ZM736.301 24.7347V24.6335H736.198V24.7347V24.8358H736.301V24.7347ZM736.198 24.7347L736.113 24.6785C735.82 25.1194 735.404 25.4893 734.863 25.7869L734.912 25.8755L734.96 25.9642C735.526 25.6533 735.967 25.2626 736.282 24.7908L736.198 24.7347ZM734.912 25.8755L734.863 25.7869C734.327 26.0818 733.708 26.2307 733.003 26.2307V26.3319V26.4331C733.737 26.4331 734.39 26.2777 734.96 25.9642L734.912 25.8755ZM733.397 24.4443V24.5454C733.967 24.5454 734.483 24.4099 734.942 24.1371L734.891 24.0501L734.839 23.9631C734.413 24.2159 733.934 24.3431 733.397 24.3431V24.4443ZM734.891 24.0501L734.942 24.1371C735.4 23.8655 735.758 23.5 736.016 23.0418L735.928 22.9922L735.84 22.9426C735.6 23.3695 735.267 23.7093 734.839 23.9631L734.891 24.0501ZM735.928 22.9922L736.016 23.0418C736.274 22.584 736.403 22.0898 736.403 21.5609H736.301H736.2C736.2 22.0554 736.08 22.5154 735.84 22.9426L735.928 22.9922ZM736.301 21.5609L736.351 21.4728C736.024 21.2879 735.642 21.1397 735.207 21.0273L735.181 21.1253L735.156 21.2233C735.578 21.3322 735.943 21.4744 736.252 21.649L736.301 21.5609ZM735.181 21.1253L735.207 21.0276C734.783 20.9145 734.339 20.8582 733.874 20.8582V20.9594V21.0606C734.323 21.0606 734.749 21.1149 735.155 21.2231L735.181 21.1253ZM733.874 20.9594V20.8582C733.007 20.8582 732.349 21.0325 731.921 21.4013L731.987 21.478L732.053 21.5546C732.427 21.232 733.027 21.0606 733.874 21.0606V20.9594ZM731.987 21.478L731.922 21.4C731.497 21.7519 731.284 22.2166 731.284 22.7848H731.385H731.486C731.486 22.2744 731.674 21.8678 732.051 21.5559L731.987 21.478ZM731.385 22.7848H731.284C731.284 23.2989 731.484 23.7279 731.88 24.0649L731.945 23.9879L732.011 23.9109C731.66 23.6117 731.486 23.2387 731.486 22.7848H731.385ZM731.945 23.9879L731.881 24.0663C732.277 24.3885 732.785 24.5454 733.397 24.5454V24.4443V24.3431C732.82 24.3431 732.361 24.1958 732.009 23.9095L731.945 23.9879ZM741.425 29.9205L741.367 30.0032L741.367 30.0036L741.425 29.9205ZM739.724 27.8047L739.685 27.7113L739.596 27.7482L739.629 27.8386L739.724 27.8047ZM741.86 26.9127L741.954 26.8751L741.916 26.7798L741.821 26.8193L741.86 26.9127ZM742.918 28.2403L742.976 28.1572L742.976 28.1568L742.918 28.2403ZM746.922 27.8876L746.849 27.817L746.848 27.8188L746.922 27.8876ZM747.752 24.5065H747.853V24.4053H747.752V24.5065ZM747.627 24.5065V24.4053H747.574L747.544 24.4488L747.627 24.5065ZM746.237 25.6889L746.282 25.7798L746.283 25.7794L746.237 25.6889ZM741.798 25.4192L741.746 25.506V25.506L741.798 25.4192ZM739.973 23.4901L739.883 23.5371L739.884 23.5388L739.973 23.4901ZM739.973 17.7442L739.884 17.696L739.883 17.6966L739.973 17.7442ZM741.798 15.7943L741.85 15.8811L741.851 15.8804L741.798 15.7943ZM746.237 15.5246L746.192 15.6151V15.6151L746.237 15.5246ZM747.627 16.707L747.544 16.7647L747.574 16.8082H747.627V16.707ZM747.752 16.707V16.8082H747.853V16.707H747.752ZM747.752 15.4209V15.3197H747.65V15.4209H747.752ZM749.93 15.4209H750.031V15.3197H749.93V15.4209ZM749.266 28.344L749.177 28.2951L749.177 28.2957L749.266 28.344ZM747.399 30.1901L747.352 30.1003L747.352 30.1006L747.399 30.1901ZM746.217 23.6353L746.266 23.7236L746.268 23.7225L746.217 23.6353ZM747.337 22.4529L747.426 22.501L747.426 22.5L747.337 22.4529ZM746.86 18.0968L746.786 18.1667L746.788 18.1684L746.86 18.0968ZM743.126 17.599L743.175 17.6873L743.177 17.6862L743.126 17.599ZM743.126 23.6353L743.074 23.7225L743.076 23.7236L743.126 23.6353ZM744.661 30.8124V30.7113C743.376 30.7113 742.319 30.4176 741.482 29.8373L741.425 29.9205L741.367 30.0036C742.245 30.6126 743.345 30.9136 744.661 30.9136V30.8124ZM741.425 29.9205L741.483 29.8378C740.653 29.2528 740.101 28.5634 739.819 27.7707L739.724 27.8047L739.629 27.8386C739.927 28.6777 740.509 29.3989 741.367 30.0032L741.425 29.9205ZM739.724 27.8047L739.763 27.898L741.899 27.0061L741.86 26.9127L741.821 26.8193L739.685 27.7113L739.724 27.8047ZM741.86 26.9127L741.766 26.9503C741.995 27.5217 742.36 27.9803 742.861 28.3237L742.918 28.2403L742.976 28.1568C742.508 27.8364 742.168 27.41 741.954 26.8751L741.86 26.9127ZM742.918 28.2403L742.861 28.3234C743.377 28.682 743.978 28.86 744.661 28.86V28.7589V28.6577C744.016 28.6577 743.455 28.49 742.976 28.1572L742.918 28.2403ZM744.661 28.7589V28.86C745.65 28.86 746.433 28.5624 746.996 27.9565L746.922 27.8876L746.848 27.8188C746.332 28.3745 745.607 28.6577 744.661 28.6577V28.7589ZM746.922 27.8876L746.994 27.9583C747.571 27.3671 747.853 26.5365 747.853 25.4814H747.752H747.65C747.65 26.5006 747.379 27.2742 746.849 27.817L746.922 27.8876ZM747.752 25.4814H747.853V24.5065H747.752H747.65V25.4814H747.752ZM747.752 24.5065V24.4053H747.627V24.5065V24.6077H747.752V24.5065ZM747.627 24.5065L747.544 24.4488C747.209 24.9317 746.759 25.315 746.192 25.5983L746.237 25.6889L746.283 25.7794C746.877 25.4819 747.354 25.077 747.71 24.5642L747.627 24.5065ZM746.237 25.6889L746.193 25.5979C745.642 25.8666 745.001 26.0025 744.267 26.0025V26.1037V26.2049C745.026 26.2049 745.699 26.0642 746.282 25.7798L746.237 25.6889ZM744.267 26.1037V26.0025C743.4 26.0025 742.595 25.7794 741.85 25.3324L741.798 25.4192L741.746 25.506C742.522 25.9717 743.363 26.2049 744.267 26.2049V26.1037ZM741.798 25.4192L741.85 25.3324C741.106 24.8859 740.51 24.2564 740.061 23.4413L739.973 23.4901L739.884 23.5388C740.348 24.3831 740.969 25.0398 741.746 25.506L741.798 25.4192ZM739.973 23.4901L740.062 23.4431C739.628 22.6158 739.41 21.6712 739.41 20.6067H739.309H739.208C739.208 21.6996 739.432 22.6772 739.883 23.5371L739.973 23.4901ZM739.309 20.6067H739.41C739.41 19.5422 739.628 18.6048 740.062 17.7918L739.973 17.7442L739.883 17.6966C739.432 18.543 739.208 19.5139 739.208 20.6067H739.309ZM739.973 17.7442L740.062 17.7923C740.51 16.9634 741.106 16.3273 741.85 15.8811L741.798 15.7943L741.746 15.7075C740.969 16.174 740.348 16.8379 739.884 17.696L739.973 17.7442ZM741.798 15.7943L741.851 15.8804C742.596 15.42 743.401 15.1902 744.267 15.1902V15.089V14.9878C743.363 14.9878 742.521 15.2283 741.745 15.7082L741.798 15.7943ZM744.267 15.089V15.1902C744.986 15.1902 745.627 15.3326 746.192 15.6151L746.237 15.5246L746.283 15.4341C745.686 15.1358 745.013 14.9878 744.267 14.9878V15.089ZM746.237 15.5246L746.192 15.6151C746.759 15.8985 747.209 16.2818 747.544 16.7647L747.627 16.707L747.71 16.6493C747.354 16.1365 746.877 15.7316 746.283 15.4341L746.237 15.5246ZM747.627 16.707V16.8082H747.752V16.707V16.6058H747.627V16.707ZM747.752 16.707H747.853V15.4209H747.752H747.65V16.707H747.752ZM747.752 15.4209V15.5221H749.93V15.4209V15.3197H747.752V15.4209ZM749.93 15.4209H749.828V25.4192H749.93H750.031V15.4209H749.93ZM749.93 25.4192H749.828C749.828 26.5541 749.61 27.5113 749.177 28.2951L749.266 28.344L749.354 28.3929C749.807 27.5725 750.031 26.5798 750.031 25.4192H749.93ZM749.266 28.344L749.177 28.2957C748.744 29.0944 748.136 29.695 747.352 30.1003L747.399 30.1901L747.445 30.28C748.266 29.8556 748.903 29.2254 749.355 28.3922L749.266 28.344ZM747.399 30.1901L747.352 30.1006C746.58 30.5067 745.684 30.7113 744.661 30.7113V30.8124V30.9136C745.712 30.9136 746.641 30.7034 747.446 30.2797L747.399 30.1901ZM744.682 24.0294V24.1306C745.251 24.1306 745.78 23.995 746.266 23.7236L746.217 23.6353L746.167 23.5469C745.712 23.801 745.218 23.9282 744.682 23.9282V24.0294ZM746.217 23.6353L746.268 23.7225C746.755 23.4359 747.141 23.0278 747.426 22.501L747.337 22.4529L747.248 22.4048C746.979 22.9013 746.618 23.2814 746.165 23.548L746.217 23.6353ZM747.337 22.4529L747.426 22.5C747.712 21.9575 747.853 21.3254 747.853 20.6067H747.752H747.65C747.65 21.2987 747.515 21.8973 747.247 22.4058L747.337 22.4529ZM747.752 20.6067H747.853C747.853 19.5092 747.55 18.6438 746.931 18.0253L746.86 18.0968L746.788 18.1684C747.359 18.7391 747.65 19.547 747.65 20.6067H747.752ZM746.86 18.0968L746.933 18.0269C746.332 17.3977 745.579 17.0829 744.682 17.0829V17.1841V17.2853C745.526 17.2853 746.225 17.579 746.786 18.1667L746.86 18.0968ZM744.682 17.1841V17.0829C744.097 17.0829 743.561 17.2257 743.074 17.5117L743.126 17.599L743.177 17.6862C743.631 17.4191 744.132 17.2853 744.682 17.2853V17.1841ZM743.126 17.599L743.076 17.5106C742.588 17.7835 742.202 18.1853 741.917 18.7125L742.006 18.7606L742.095 18.8087C742.363 18.3125 742.723 17.9399 743.175 17.6873L743.126 17.599ZM742.006 18.7606L741.917 18.7125C741.63 19.242 741.49 19.8748 741.49 20.6067H741.591H741.692C741.692 19.9005 741.828 19.3025 742.095 18.8087L742.006 18.7606ZM741.591 20.6067H741.49C741.49 21.3387 741.63 21.9715 741.917 22.501L742.006 22.4529L742.095 22.4048C741.828 21.911 741.692 21.313 741.692 20.6067H741.591ZM742.006 22.4529L741.917 22.501C742.201 23.0278 742.587 23.4359 743.074 23.7225L743.126 23.6353L743.177 23.548C742.724 23.2814 742.363 22.9013 742.095 22.4048L742.006 22.4529ZM743.126 23.6353L743.076 23.7236C743.562 23.9952 744.098 24.1306 744.682 24.1306V24.0294V23.9282C744.131 23.9282 743.629 23.8008 743.175 23.5469L743.126 23.6353Z" fill="white" mask="url(#path-1-outside-1_132_28)"/>
<line x1="733" y1="12.1905" x2="1440" y2="12.1905" stroke="white" stroke-width="1.61899"/>
<line x1="-4.64417e-07" y1="20.6877" x2="710" y2="20.6876" stroke="white" stroke-width="10.6246"/>
</svg>
